<svg width="608" height="233" viewBox="0 0 608 233" fill="none" xmlns="http://www.w3.org/2000/svg">
<path d="M420.336 195.11V144.619L516.021 8.10352H583.032V142.125H607.031V195.11H583.032V232.512H521.32V195.11H420.336ZM525.995 76.9844L482.983 142.125H525.995V76.9844Z" fill="#2C2A29"/>
<path d="M211.75 115.321C211.75 79.5818 219.023 51.4269 233.567 30.8562C248.112 10.2854 270.969 0 302.137 0C333.305 0 356.161 10.2854 370.706 30.8562C385.459 51.4269 392.835 79.5818 392.835 115.321C392.835 151.476 385.563 179.838 371.018 200.409C356.473 220.98 333.512 231.265 302.137 231.265C270.761 231.265 247.801 220.98 233.256 200.409C218.919 179.838 211.75 151.476 211.75 115.321ZM332.369 115.321C332.369 96.6203 330.396 82.387 326.448 72.621C322.5 62.6473 314.396 57.6605 302.137 57.6605C289.877 57.6605 281.774 62.6473 277.826 72.621C273.878 82.387 271.904 96.6203 271.904 115.321C271.904 134.437 273.774 148.982 277.514 158.956C281.462 168.722 289.67 173.605 302.137 173.605C314.604 173.605 322.707 168.722 326.448 158.956C330.396 148.982 332.369 134.437 332.369 115.321Z" fill="#214DDE"/>
<path d="M0 195.11V144.619L95.6852 8.10352H162.696V142.125H186.695V195.11H162.696V232.512H100.984V195.11H0ZM105.659 76.9844L62.6473 142.125H105.659V76.9844Z" fill="#2C2A29"/>
</svg>
