<svg width="13" height="18" viewBox="0 0 13 18" fill="none" xmlns="http://www.w3.org/2000/svg">
<path d="M6.44866 0C2.89285 0 0 2.89285 0 6.44862C0 10.8615 5.77092 17.3397 6.01662 17.6134C6.2474 17.8704 6.65033 17.87 6.8807 17.6134C7.1264 17.3397 12.8973 10.8615 12.8973 6.44862C12.8972 2.89285 10.0044 0 6.44866 0ZM6.44866 16.3359C4.50645 14.0289 1.16129 9.47724 1.16129 6.44869C1.16129 3.53317 3.53317 1.16129 6.44866 1.16129C9.36415 1.16129 11.736 3.53317 11.736 6.44866C11.736 9.47735 8.39136 14.0281 6.44866 16.3359Z" fill="black"/>
<path d="M6.44757 3.20508C4.65856 3.20508 3.20312 4.66054 3.20312 6.44956C3.20312 8.23858 4.65859 9.69404 6.44757 9.69404C8.23655 9.69404 9.69199 8.23858 9.69199 6.44956C9.69199 4.66054 8.23655 3.20508 6.44757 3.20508ZM6.44757 8.53276C5.29888 8.53276 4.36441 7.59826 4.36441 6.44956C4.36441 5.30087 5.29891 4.36636 6.44757 4.36636C7.59623 4.36636 8.53074 5.30087 8.53074 6.44956C8.53074 7.59826 7.59623 8.53276 6.44757 8.53276Z" fill="black"/>
</svg>
