<svg width="12" height="7" viewBox="0 0 12 7" fill="none" xmlns="http://www.w3.org/2000/svg">
<path d="M5.25693 6.51774L0.182182 1.4429C0.0647141 1.32552 2.41759e-07 1.16884 2.49061e-07 1.00177C2.56364e-07 0.834698 0.0647141 0.678012 0.182182 0.560637L0.555816 0.18691C0.799281 -0.0562768 1.19498 -0.0562768 1.43808 0.18691L5.69955 4.44838L9.96575 0.182182C10.0832 0.064807 10.2398 4.47596e-07 10.4068 4.54895e-07C10.5739 4.62202e-07 10.7305 0.0648071 10.8481 0.182182L11.2216 0.555909C11.3391 0.673377 11.4038 0.82997 11.4038 0.997039C11.4038 1.16411 11.3391 1.32079 11.2216 1.43817L6.14225 6.51774C6.02442 6.6354 5.86708 6.70002 5.69983 6.69965C5.53192 6.70002 5.37468 6.6354 5.25693 6.51774Z" fill="#214DDE"/>
</svg>
