<svg width="8" height="5" viewBox="0 0 8 5" fill="none" xmlns="http://www.w3.org/2000/svg">
<path d="M3.62413 4.49334L0.125596 0.994734C0.0446139 0.913815 1.66669e-07 0.805796 1.71704e-07 0.690619C1.76738e-07 0.575441 0.0446139 0.467422 0.125596 0.386504L0.38318 0.128856C0.551025 -0.0387973 0.823821 -0.0387973 0.99141 0.128856L3.92927 3.06672L6.87039 0.125596C6.95137 0.044678 7.05933 3.08573e-07 7.17444 3.13605e-07C7.28968 3.18642e-07 7.39764 0.044678 7.47869 0.125596L7.73621 0.383244C7.81719 0.464226 7.8618 0.572182 7.8618 0.687359C7.8618 0.802537 7.81719 0.910556 7.73621 0.991474L4.23447 4.49334C4.15323 4.57445 4.04477 4.619 3.92946 4.61874C3.81371 4.619 3.70531 4.57445 3.62413 4.49334Z" fill="white"/>
</svg>
