<svg width="22" height="15" viewBox="0 0 22 15" fill="none" xmlns="http://www.w3.org/2000/svg">
<path d="M21.6622 8.25504C21.7693 8.1505 21.8542 8.02613 21.9122 7.88909C21.9702 7.75206 22 7.60508 22 7.45663C22 7.30818 21.9702 7.1612 21.9122 7.02416C21.8542 6.88713 21.7693 6.76276 21.6622 6.65822L15.1647 0.259675C14.9466 0.0811456 14.6687 -0.0110442 14.3854 0.001057C14.102 0.0131591 13.8333 0.128685 13.6317 0.325141C13.4301 0.521597 13.3099 0.784921 13.2946 1.06384C13.2793 1.34275 13.3699 1.6173 13.5489 1.83401L18.1166 6.3321L1.14192 6.33211C0.839064 6.33211 0.548612 6.45058 0.33446 6.66147C0.120309 6.87236 -3.42768e-07 7.15839 -3.29731e-07 7.45663C-3.16695e-07 7.75487 0.120309 8.0409 0.33446 8.25179C0.548612 8.46268 0.839064 8.58115 1.14192 8.58115L18.0994 8.58115L13.5318 13.0792C13.3175 13.2903 13.1971 13.5764 13.1971 13.8749C13.1971 14.1733 13.3175 14.4594 13.5318 14.6705C13.746 14.8815 14.0366 15 14.3397 15C14.6427 15 14.9333 14.8815 15.1476 14.6705L21.6622 8.25504Z" fill="#12172A"/>
</svg>
