<svg width="19" height="13" viewBox="0 0 19 13" fill="none" xmlns="http://www.w3.org/2000/svg">
<path d="M17.6923 11.7H3.30769V2.12767L10.0597 8.281C10.1818 8.38933 10.3387 8.45433 10.5 8.45433C10.6613 8.45433 10.8226 8.39367 10.9403 8.281L17.6923 2.12767V11.7ZM16.6636 1.3L10.5 6.92033L4.33641 1.3H16.6679H16.6636ZM18.3462 0H2.65385C2.47949 0 2.31385 0.0693333 2.19179 0.190667C2.06974 0.312 2 0.476667 2 0.65V11.7C2 12.0467 2.13949 12.376 2.38359 12.6187C2.62769 12.8613 2.96333 13 3.30769 13H17.6923C18.041 13 18.3723 12.8613 18.6164 12.6187C18.8605 12.376 19 12.0423 19 11.7V0.65C19 0.476667 18.9303 0.312 18.8082 0.190667C18.6862 0.0693333 18.5205 0 18.3462 0Z" fill="black"/>
</svg>
