<svg width="17" height="13" viewBox="0 0 17 13" fill="none" xmlns="http://www.w3.org/2000/svg">
<path d="M15.6923 11.7H1.30769V2.12767L8.05974 8.281C8.18179 8.38933 8.33872 8.45433 8.5 8.45433C8.66128 8.45433 8.82256 8.39367 8.94026 8.281L15.6923 2.12767V11.7ZM14.6636 1.3L8.5 6.92033L2.33641 1.3H14.6679H14.6636ZM16.3462 0H0.653846C0.479487 0 0.313846 0.0693333 0.191795 0.190667C0.0697436 0.312 0 0.476667 0 0.65V11.7C0 12.0467 0.139487 12.376 0.38359 12.6187C0.627692 12.8613 0.963333 13 1.30769 13H15.6923C16.041 13 16.3723 12.8613 16.6164 12.6187C16.8605 12.376 17 12.0423 17 11.7V0.65C17 0.476667 16.9303 0.312 16.8082 0.190667C16.6862 0.0693333 16.5205 0 16.3462 0Z" fill="#214DDE"/>
</svg>
