<svg width="36" height="36" viewBox="0 0 36 36" fill="none" xmlns="http://www.w3.org/2000/svg">
<circle cx="18" cy="18" r="18" fill="#DCE2F6"/>
<path d="M17.687 23.2932L11.2299 16.8359C11.0804 16.6866 10.998 16.4872 10.998 16.2747C10.998 16.0621 11.0804 15.8627 11.2299 15.7134L11.7053 15.2378C12.0151 14.9284 12.5185 14.9284 12.8279 15.2378L18.2502 20.6601L23.6785 15.2318C23.828 15.0825 24.0272 15 24.2397 15C24.4524 15 24.6516 15.0825 24.8012 15.2318L25.2765 15.7073C25.426 15.8568 25.5083 16.0561 25.5083 16.2686C25.5083 16.4812 25.426 16.6806 25.2765 16.8299L18.8135 23.2932C18.6635 23.4429 18.4634 23.5251 18.2505 23.5247C18.0369 23.5251 17.8368 23.4429 17.687 23.2932Z" fill="#17181A"/>
</svg>
