<svg width="203" height="23" viewBox="0 0 203 23" fill="none" xmlns="http://www.w3.org/2000/svg">
<path d="M7.17812 0.451699H18.6478V5.06894H7.08552C6.30959 5.06894 5.71567 5.23818 5.31653 5.57665C4.9174 5.91512 4.71623 6.41324 4.71623 7.07422C4.71623 7.73519 4.9174 8.21735 5.31653 8.54944C5.71567 8.87833 6.30001 9.04756 7.08552 9.04756H12.0476C14.4329 9.04756 16.2945 9.64787 17.6324 10.8389C18.9703 12.0299 19.6408 13.6808 19.6408 15.7946C19.6408 17.9085 18.9703 19.5593 17.6324 20.7503C16.2945 21.9414 14.4329 22.5417 12.0476 22.5417H0.453422V17.8957H12.1626C13.063 17.8957 13.7464 17.7201 14.2094 17.3656C14.6724 17.0112 14.9023 16.4907 14.9023 15.7978C14.9023 15.1049 14.6724 14.5685 14.2094 14.2236C13.7464 13.8787 13.063 13.6999 12.1626 13.6999H7.17812C4.95571 13.6999 3.20908 13.1092 1.92545 11.9182C0.638623 10.7303 0 9.10823 0 7.07422C0 5.0402 0.638623 3.40214 1.92225 2.21749C3.20908 1.03604 4.95252 0.445312 7.17812 0.445312V0.451699Z" fill="black"/>
<path d="M33.279 3.85728L35.2268 10.5724C35.313 10.8406 35.4184 11.0418 35.5493 11.1727C35.6866 11.3036 35.8558 11.3643 36.0634 11.3643C36.271 11.3643 36.4242 11.3036 36.5647 11.1727C36.702 11.0418 36.8106 10.8438 36.8872 10.5724L38.8318 3.85728C39.1863 2.63751 39.8632 1.68277 40.8563 1.01541C41.8557 0.33847 43.0627 0 44.4932 0C46.3101 0 47.7247 0.485353 48.7241 1.44329C49.7331 2.40441 50.2312 3.74872 50.2312 5.4698V22.537H45.515V5.95196C45.515 5.53047 45.416 5.20797 45.2213 4.98445C45.0201 4.76093 44.7359 4.64598 44.3687 4.64598C44.0366 4.64598 43.778 4.729 43.5832 4.90782C43.3916 5.08344 43.2 5.50812 42.9988 6.1691L41.4151 11.2398C40.9137 12.8523 40.2304 14.0497 39.3619 14.8192C38.4934 15.5952 37.3917 15.9783 36.0634 15.9783C34.7351 15.9783 33.6398 15.5952 32.7713 14.8256C31.9028 14.0561 31.2163 12.8587 30.7085 11.2398L29.1088 6.1691C28.9076 5.50812 28.716 5.08663 28.5308 4.90782C28.3456 4.73219 28.0774 4.64598 27.739 4.64598C27.3622 4.64598 27.078 4.76093 26.8704 4.99084C26.6629 5.22074 26.5639 5.54325 26.5639 5.95196V22.537H21.8477V5.4698C21.8477 3.74872 22.3554 2.40441 23.3708 1.44329C24.3862 0.485353 25.8007 0 27.6176 0C29.0545 0 30.2775 0.33847 31.2705 1.01541C32.2636 1.69235 32.931 2.63751 33.2854 3.85728H33.279Z" fill="#000104"/>
<path d="M67.1645 4.07122L73.2793 22.537H68.2789L62.7388 5.42191C62.6526 5.15369 62.5472 4.95252 62.4004 4.83118C62.2631 4.70984 62.0842 4.64598 61.8607 4.64598C61.6372 4.64598 61.4839 4.70665 61.353 4.8216C61.2221 4.94294 61.1135 5.13772 61.0369 5.40594L55.4969 22.537H50.4805L56.5665 4.07122C57.0423 2.65028 57.6969 1.6221 58.5367 0.967514C59.3797 0.322504 60.4877 0 61.8639 0C63.2402 0 64.3705 0.33847 65.2486 1.0218C66.1267 1.69874 66.7654 2.72053 67.1549 4.07761L67.1613 4.07122H67.1645Z" fill="#000104"/>
<path d="M73.5195 0.453125H85.7364C88.0354 0.453125 89.7437 0.852264 90.8454 1.64416C91.947 2.43605 92.493 3.6654 92.493 5.32262V7.08203C92.493 8.35608 92.2535 9.37149 91.7778 10.1378C91.302 10.8978 90.5708 11.4279 89.5841 11.728C90.2004 11.9675 90.7081 12.373 91.1072 12.9478C91.5159 13.5225 91.8001 14.2378 91.9757 15.0999L93.5595 22.5431H88.5974L87.5054 16.5592C87.3681 15.7386 87.0903 15.084 86.6752 14.5922C86.2505 14.1005 85.7683 13.8546 85.2223 13.8546H80.4773V9.42258H85.5384C86.2537 9.42258 86.8093 9.28528 87.1988 9.00748C87.5916 8.72968 87.7832 8.34012 87.7832 7.83241V6.65096C87.7832 6.14325 87.5916 5.75369 87.1988 5.47589C86.8061 5.19809 86.2601 5.06079 85.5384 5.06079H78.239V22.5271H73.5227V0.453125H73.5195Z" fill="#000104"/>
<path d="M93.6406 0.453125H111.771V5.07037H105.078V22.5367H100.362V5.07037H93.6406V0.453125Z" fill="#000104"/>
<path d="M125.489 5.0994L128.804 16.8054C128.98 17.428 129.165 17.8431 129.356 18.0411C129.548 18.2423 129.819 18.3412 130.171 18.3412C130.554 18.3412 130.847 18.2263 131.049 17.9804C131.25 17.7409 131.349 17.3961 131.349 16.9363V0.453422H136.065V17.4759C136.065 19.2034 135.557 20.5573 134.542 21.5312C133.527 22.5083 132.112 22.9904 130.295 22.9904C128.647 22.9904 127.364 22.6072 126.441 21.8377C125.525 21.0682 124.803 19.7558 124.273 17.891L120.958 6.1691C120.783 5.55602 120.598 5.1473 120.406 4.94613C120.214 4.74497 119.943 4.64598 119.592 4.64598C119.199 4.64598 118.899 4.76093 118.707 4.99084C118.506 5.22074 118.413 5.55921 118.413 6.01902V22.5402H113.697V5.4698C113.697 3.74872 114.205 2.40441 115.22 1.44329C116.236 0.48216 117.65 0 119.467 0C121.115 0 122.398 0.383174 123.321 1.15271C124.238 1.92225 124.959 3.23462 125.489 5.0994Z" fill="#1F6FA9"/>
<path d="M155.172 15.7005C155.172 16.5691 154.948 17.23 154.501 17.6739C154.054 18.1209 153.393 18.3412 152.525 18.3412H146.241C145.372 18.3412 144.711 18.1177 144.264 17.6739C143.817 17.2269 143.594 16.5691 143.594 15.7005V7.28988C143.594 6.42135 143.817 5.76038 144.264 5.31653C144.711 4.8695 145.372 4.64917 146.241 4.64917H152.525C153.393 4.64917 154.054 4.87269 154.501 5.31653C154.948 5.76357 155.172 6.42135 155.172 7.28988V15.7005ZM158.049 1.83604C156.826 0.616271 155.134 0 152.965 0H145.787C143.626 0 141.933 0.613078 140.71 1.83604C139.487 3.059 138.871 4.74816 138.871 6.90671V16.0486C138.871 18.2135 139.487 19.9123 140.71 21.148C141.933 22.3837 143.626 23 145.787 23H152.965C155.134 23 156.826 22.3869 158.059 21.148C159.281 19.9123 159.898 18.2135 159.898 16.0486V6.90671C159.898 4.74816 159.281 3.06539 158.059 1.83604H158.052H158.049Z" fill="#1F6FA9"/>
<path d="M159.98 0.452412H164.997L170.537 17.5356C170.623 17.8134 170.729 18.0209 170.859 18.1487C170.997 18.2796 171.16 18.3402 171.361 18.3402C171.575 18.3402 171.76 18.27 171.9 18.1391C172.038 18.0018 172.153 17.8006 172.239 17.5324L177.779 0.449219H182.779L176.664 18.8703C176.272 20.2465 175.633 21.2811 174.749 21.9644C173.864 22.6477 172.74 22.9926 171.37 22.9926C170 22.9926 168.892 22.6701 168.056 22.0155C167.219 21.3609 166.555 20.3168 166.079 18.8735L159.987 0.458798L159.98 0.452412Z" fill="#1F6FA9"/>
<path d="M196.198 4.07122L202.313 22.537H197.312L191.772 5.42191C191.686 5.15369 191.58 4.95252 191.434 4.83118C191.296 4.70984 191.117 4.64598 190.894 4.64598C190.67 4.64598 190.517 4.70665 190.386 4.8216C190.255 4.94294 190.147 5.13772 190.07 5.40594L184.53 22.537H179.514L185.6 4.07122C186.076 2.65028 186.73 1.6221 187.57 0.967514C188.419 0.322504 189.527 0 190.904 0C192.28 0 193.41 0.33847 194.288 1.0218C195.166 1.69874 195.805 2.72053 196.194 4.07761V4.07122H196.198Z" fill="#1F6FA9"/>
</svg>
