<svg width="56" height="55" viewBox="0 0 56 55" fill="none" xmlns="http://www.w3.org/2000/svg">
<path d="M22.9716 36.6698H32.1543C33.6758 36.6698 34.9092 35.4386 34.9092 33.9199V25.6702C34.9092 24.1515 33.6758 22.9203 32.1543 22.9203V21.0871C32.1543 18.5559 30.0987 16.5039 27.563 16.5039C25.0272 16.5039 22.9716 18.5559 22.9716 21.0871V22.9203C21.4502 22.9203 20.2168 24.1515 20.2168 25.6702V33.9199C20.2168 35.4386 21.4502 36.6698 22.9716 36.6698ZM24.8082 21.0871C24.8082 19.5683 26.0415 18.3372 27.563 18.3372C29.0844 18.3372 30.3178 19.5683 30.3178 21.0871V22.9203H24.8082V21.0871ZM22.0533 25.6702C22.0533 25.164 22.4645 24.7536 22.9716 24.7536H32.1543C32.6615 24.7536 33.0726 25.164 33.0726 25.6702V33.9199C33.0726 34.4261 32.6615 34.8365 32.1543 34.8365H22.9716C22.4645 34.8365 22.0533 34.4261 22.0533 33.9199V25.6702Z" fill="#214DDE"/>
<path d="M26.6434 31.9167V32.0854C26.6434 32.5916 27.0546 33.002 27.5617 33.002C28.0689 33.002 28.48 32.5916 28.48 32.0854V31.9167C29.7449 31.4703 30.5037 30.1791 30.2769 28.8591C30.05 27.5391 28.9034 26.5742 27.5617 26.5742C26.22 26.5742 25.0735 27.5391 24.8466 28.8591C24.6197 30.1791 25.3785 31.4703 26.6434 31.9167ZM27.5617 28.4189C28.0689 28.4189 28.48 28.8293 28.48 29.3355C28.48 29.8417 28.0689 30.2521 27.5617 30.2521C27.0546 30.2521 26.6434 29.8417 26.6434 29.3355C26.6434 28.8293 27.0546 28.4189 27.5617 28.4189Z" fill="#214DDE"/>
<path d="M11.9531 27.5007C11.9531 36.1068 18.9422 43.0834 27.5637 43.0834C36.1853 43.0834 43.1744 36.1068 43.1744 27.5007C43.1744 18.8946 36.1853 11.918 27.5637 11.918C18.9462 11.9276 11.9627 18.8986 11.9531 27.5007ZM27.5637 13.7512C35.171 13.7512 41.3378 19.9071 41.3378 27.5007C41.3378 35.0943 35.171 41.2501 27.5637 41.2501C19.9565 41.2501 13.7897 35.0943 13.7897 27.5007C13.7983 19.9106 19.9601 13.7598 27.5637 13.7512Z" fill="#214DDE"/>
<path d="M45.9278 47.6653C44.258 47.6715 42.8025 48.8013 42.3851 50.4152H35.8268V44.8742C37.8799 43.9094 39.7453 42.5889 41.3364 40.9739C41.5716 40.7412 41.6631 40.4 41.5757 40.0811C41.4883 39.7622 41.2357 39.515 40.9146 39.4341C40.5935 39.3532 40.2536 39.4513 40.0251 39.6906C38.466 41.2818 36.6152 42.5591 34.5733 43.4534C34.45 43.5022 34.339 43.5777 34.2483 43.6743C34.2382 43.6853 34.2327 43.6999 34.2226 43.7128C34.1554 43.7874 34.1011 43.8725 34.0619 43.9649C34.0439 44.0224 34.0319 44.0817 34.026 44.1418C34.009 44.1937 33.997 44.2471 33.9902 44.3013V44.3178V50.4152C33.9902 51.4277 34.8125 52.2484 35.8268 52.2484H42.3851C42.8655 54.0887 44.6777 55.255 46.5552 54.9324C48.4327 54.6099 49.7499 52.9058 49.5863 51.0111C49.4228 49.1164 47.8329 47.6625 45.9278 47.6653ZM45.9278 53.1651C44.9135 53.1651 44.0912 52.3443 44.0912 51.3318C44.0912 50.3193 44.9135 49.4985 45.9278 49.4985C46.9421 49.4985 47.7643 50.3193 47.7643 51.3318C47.7643 52.3443 46.9421 53.1651 45.9278 53.1651Z" fill="#214DDE"/>
<path d="M7.22954 37.5804H11.6666C11.674 37.5804 11.6804 37.5758 11.6887 37.5758C11.78 37.5717 11.8702 37.5535 11.9559 37.5217C11.9987 37.5077 12.0405 37.4906 12.0808 37.4704C12.0909 37.4649 12.1028 37.4631 12.1129 37.4567C12.123 37.4503 12.1386 37.431 12.1533 37.4209C12.2366 37.3696 12.3105 37.3045 12.3719 37.2284C12.3827 37.2143 12.3928 37.1996 12.4022 37.1844C12.4616 37.101 12.5063 37.008 12.5344 36.9094C12.5344 36.8957 12.5399 36.8819 12.5427 36.8682C12.5649 36.802 12.5791 36.7334 12.5849 36.6638C12.5802 36.6291 12.5731 36.5948 12.5638 36.5611C12.5638 36.5492 12.5638 36.5382 12.5574 36.5254C12.5418 36.4179 12.5066 36.3141 12.4536 36.2192L12.449 36.2046C11.5074 34.5821 10.8369 32.8174 10.4637 30.9798C10.3623 30.4836 9.87714 30.1635 9.38013 30.2648C8.88313 30.366 8.56245 30.8503 8.66388 31.3464C8.97284 32.8671 9.46622 34.3446 10.1331 35.7462H7.22954C6.76713 33.9585 5.04517 32.7929 3.21026 33.0256C1.37536 33.2582 0 34.8165 0 36.6629C0 38.5092 1.37536 40.0675 3.21026 40.3002C5.04517 40.5328 6.76713 39.3681 7.22954 37.5804ZM3.68685 38.497C2.67255 38.497 1.8503 37.6763 1.8503 36.6638C1.8503 35.6513 2.67255 34.8305 3.68685 34.8305C4.70114 34.8305 5.52339 35.6513 5.52339 36.6638C5.52339 37.6763 4.70114 38.497 3.68685 38.497Z" fill="#214DDE"/>
<path d="M0.0156279 18.3344C0.0133307 20.1784 1.38603 21.7361 3.2186 21.9689C5.05118 22.2016 6.77095 21.0369 7.23141 19.251H11.6685H11.6933C11.7839 19.2459 11.8733 19.2276 11.9587 19.1969C11.999 19.1841 12.0383 19.1681 12.0762 19.1493C12.1252 19.1235 12.1713 19.0928 12.214 19.0576C12.2914 18.9992 12.3585 18.9283 12.4123 18.8477C12.4242 18.8303 12.4399 18.8174 12.4509 18.7991C13.6283 16.7595 15.2085 14.9798 17.0955 13.5679C17.3579 13.3714 17.4954 13.0501 17.4562 12.725C17.417 12.3998 17.2069 12.1203 16.9052 11.9917C16.6035 11.863 16.256 11.9048 15.9936 12.1013C14.0611 13.5544 12.4203 15.358 11.157 17.4178H7.23141C6.77095 15.6319 5.05118 14.4671 3.2186 14.6999C1.38603 14.9327 0.0133307 16.4903 0.0156279 18.3344ZM5.52526 18.3344C5.52526 19.3469 4.70301 20.1676 3.68872 20.1676C2.67442 20.1676 1.85217 19.3469 1.85217 18.3344C1.85217 17.3219 2.67442 16.5011 3.68872 16.5011C4.1758 16.5011 4.64293 16.6943 4.98735 17.0381C5.33177 17.3819 5.52526 17.8482 5.52526 18.3344Z" fill="#214DDE"/>
<path d="M51.4371 33.0007C49.7673 33.0069 48.3119 34.1367 47.8944 35.7506H44.9899C45.6574 34.3492 46.1508 32.8717 46.4592 31.3508C46.5606 30.8544 46.2397 30.3699 45.7425 30.2687C45.2452 30.1674 44.7599 30.4877 44.6584 30.9841C44.2859 32.8217 43.616 34.5864 42.675 36.2089V36.2208C42.6201 36.3177 42.584 36.4241 42.5684 36.5343C42.5684 36.5444 42.5684 36.5536 42.562 36.5636C42.5525 36.5977 42.5449 36.6323 42.5391 36.6672C42.5446 36.7392 42.5588 36.8103 42.5813 36.879C42.5813 36.8909 42.5813 36.9028 42.5886 36.9147C42.6172 37.0136 42.6629 37.1066 42.7236 37.1897C42.7328 37.2034 42.7402 37.2172 42.7503 37.23C42.8125 37.3065 42.8869 37.3722 42.9706 37.4244C42.9853 37.4344 42.9945 37.45 43.0101 37.4592C43.0257 37.4684 43.0322 37.4674 43.0423 37.4729C43.083 37.4937 43.1254 37.5112 43.169 37.5252C43.2543 37.5559 43.3438 37.5738 43.4344 37.5783C43.4426 37.5783 43.4491 37.5829 43.4573 37.5829H47.8944C48.3744 39.4234 50.1866 40.5903 52.0643 40.2679C53.9419 39.9456 55.2595 38.2415 55.0959 36.3467C54.9324 34.4519 53.3424 32.9978 51.4371 33.0007ZM51.4371 38.5005C50.4228 38.5005 49.6006 37.6797 49.6006 36.6672C49.6006 35.6547 50.4228 34.834 51.4371 34.834C52.4514 34.834 53.2737 35.6547 53.2737 36.6672C53.2737 37.6797 52.4514 38.5005 51.4371 38.5005Z" fill="#214DDE"/>
<path d="M21.1341 44.3192V44.3036C21.1283 44.2522 21.1182 44.2013 21.1038 44.1515C21.0974 44.0893 21.0847 44.0279 21.0662 43.9681C21.0276 43.8773 20.9742 43.7933 20.9083 43.7197C20.8963 43.706 20.8908 43.6895 20.8789 43.6767C20.7878 43.58 20.6765 43.5046 20.5529 43.4557C18.1492 42.3968 16.0137 40.8138 14.3031 38.8231C14.0927 38.5646 13.7584 38.4403 13.4298 38.4985C13.1013 38.5567 12.8302 38.7883 12.7219 39.1033C12.6135 39.4184 12.6849 39.7673 12.9083 40.0147C14.6742 42.0666 16.8506 43.727 19.2976 44.8894V50.4176H12.7393C12.2769 48.6298 10.5549 47.4642 8.72003 47.6969C6.88513 47.9295 5.50977 49.4878 5.50977 51.3342C5.50977 53.1805 6.88513 54.7388 8.72003 54.9715C10.5549 55.2041 12.2769 54.0385 12.7393 52.2508H19.2976C20.3119 52.2508 21.1341 51.43 21.1341 50.4176V44.3192ZM9.19661 53.1674C8.18232 53.1674 7.36007 52.3467 7.36007 51.3342C7.36007 50.3217 8.18232 49.5009 9.19661 49.5009C10.2109 49.5009 11.0332 50.3217 11.0332 51.3342C11.0332 52.3467 10.2109 53.1674 9.19661 53.1674Z" fill="#214DDE"/>
<path d="M31.0517 44.5662C28.7484 45.0279 26.3761 45.0279 24.0728 44.5662C23.7479 44.4918 23.4082 44.599 23.1851 44.8463C22.9621 45.0936 22.8908 45.4421 22.9988 45.7568C23.1069 46.0716 23.3774 46.3032 23.7055 46.3619C24.6749 46.5499 25.6572 46.6636 26.644 46.7019V54.0808C26.644 54.5871 27.0551 54.9974 27.5623 54.9974C28.0694 54.9974 28.4805 54.5871 28.4805 54.0808V46.7019C29.4673 46.6636 30.4496 46.5499 31.419 46.3619C31.9049 46.2506 32.2131 45.7727 32.1134 45.2851C32.0137 44.7975 31.5424 44.4784 31.0517 44.5662Z" fill="#214DDE"/>
<path d="M19.2976 2.75016H12.7393C12.2769 0.962451 10.5549 -0.203152 8.72003 0.0294946C6.88513 0.262141 5.50977 1.82045 5.50977 3.66679C5.50977 5.51313 6.88513 7.07144 8.72003 7.30409C10.5549 7.53673 12.2769 6.37113 12.7393 4.58342H19.2976V10.6992C19.2976 10.7358 19.3151 10.7716 19.3196 10.8083C19.3293 10.9031 19.3537 10.9959 19.3922 11.0832C19.4303 11.1649 19.4812 11.2401 19.5428 11.306C19.5736 11.3392 19.607 11.3699 19.6429 11.3976C19.6878 11.4344 19.7361 11.4669 19.787 11.4948C19.8295 11.5183 19.8737 11.5385 19.9193 11.5553C19.9849 11.5761 20.0527 11.5896 20.1213 11.5956C20.1515 11.6039 20.1822 11.6103 20.2131 11.6149C20.3447 11.6121 20.4741 11.5808 20.5924 11.5232C21.711 11.039 22.8775 10.6734 24.0726 10.4324C24.5699 10.3312 24.8908 9.84672 24.7893 9.35035C24.6879 8.85398 24.2026 8.53367 23.7053 8.63492C22.8326 8.81317 21.9735 9.05207 21.1341 9.34989V4.58342C21.1341 3.57094 20.3119 2.75016 19.2976 2.75016ZM9.19661 5.50005C8.18232 5.50005 7.36007 4.67927 7.36007 3.66679C7.36007 2.65431 8.18232 1.83353 9.19661 1.83353C10.2109 1.83353 11.0332 2.65431 11.0332 3.66679C11.0332 4.153 10.8397 4.6193 10.4952 4.9631C10.1508 5.3069 9.68369 5.50005 9.19661 5.50005Z" fill="#214DDE"/>
<path d="M42.3851 4.58342C42.8475 6.37113 44.5695 7.53673 46.4044 7.30408C48.2393 7.07144 49.6146 5.51313 49.6146 3.66679C49.6146 1.82045 48.2393 0.262141 46.4044 0.0294946C44.5695 -0.203152 42.8475 0.962451 42.3851 2.75016H35.8268C34.8125 2.75016 33.9902 3.57094 33.9902 4.58342V10.6799V10.6964C33.9958 10.7505 34.0066 10.8039 34.0224 10.8559C34.0282 10.916 34.0402 10.9752 34.0582 11.0328C34.0974 11.1251 34.1517 11.2103 34.2189 11.2849C34.229 11.2968 34.2345 11.3124 34.2446 11.3234C34.3354 11.42 34.4463 11.4954 34.5697 11.5443C36.6111 12.4372 38.4619 13.713 40.0214 15.3025C40.2466 15.5523 40.5907 15.659 40.9181 15.5807C41.2455 15.5024 41.5037 15.2515 41.5909 14.9269C41.6782 14.6023 41.5805 14.2561 41.3364 14.0247C39.7453 12.4097 37.8799 11.0892 35.8268 10.1244V4.58342H42.3851ZM45.9278 1.83353C46.9421 1.83353 47.7643 2.65431 47.7643 3.66679C47.7643 4.67927 46.9421 5.50005 45.9278 5.50005C44.9135 5.50005 44.0912 4.67927 44.0912 3.66679C44.0912 2.65431 44.9135 1.83353 45.9278 1.83353Z" fill="#214DDE"/>
<path d="M27.5628 0C27.0557 0 26.6445 0.410389 26.6445 0.91663V9.1663C26.6445 9.67254 27.0557 10.0829 27.5628 10.0829C28.7347 10.0827 29.9036 10.1994 31.0522 10.4312C31.1127 10.4436 31.1742 10.4498 31.2359 10.4496C31.7059 10.4478 32.0987 10.092 32.146 9.62512C32.1933 9.15829 31.8797 8.7312 31.4195 8.63557C30.4502 8.4475 29.4678 8.33381 28.4811 8.2955V0.91663C28.4811 0.410389 28.07 0 27.5628 0Z" fill="#214DDE"/>
<path d="M47.8944 19.2475C48.3568 21.0352 50.0788 22.2008 51.9137 21.9681C53.7486 21.7355 55.124 20.1772 55.124 18.3309C55.124 16.4845 53.7486 14.9262 51.9137 14.6936C50.0788 14.4609 48.3568 15.6265 47.8944 17.4142H43.4573C43.4399 17.4142 43.4261 17.4234 43.4096 17.4234C43.3563 17.4291 43.3038 17.4399 43.2526 17.4555C43.1771 17.4703 43.104 17.495 43.0349 17.5288C43.0276 17.5288 43.0184 17.5288 43.0101 17.538C43.0019 17.5471 42.9863 17.5627 42.9706 17.5728C42.8869 17.625 42.8125 17.6906 42.7503 17.7671C42.7402 17.78 42.7328 17.7937 42.7236 17.8075C42.6629 17.8905 42.6172 17.9836 42.5886 18.0824C42.5886 18.0944 42.5886 18.1063 42.5813 18.1182C42.5587 18.1871 42.5445 18.2585 42.5391 18.3309C42.5439 18.366 42.5507 18.4009 42.5593 18.4353C42.5593 18.4454 42.5639 18.4546 42.5657 18.4647C42.5812 18.5749 42.6173 18.6813 42.6722 18.7782V18.7901C44.2037 21.4372 45.0097 24.4403 45.0092 27.4971C45.0092 28.0034 45.4203 28.4138 45.9275 28.4138H54.1919C54.6991 28.4138 55.1102 28.0034 55.1102 27.4971C55.1102 26.9909 54.6991 26.5805 54.1919 26.5805H46.8155C46.6951 24.039 46.0708 21.5466 44.9789 19.2475H47.8944ZM51.4371 16.4976C52.4514 16.4976 53.2737 17.3184 53.2737 18.3309C53.2737 19.3433 52.4514 20.1641 51.4371 20.1641C50.4228 20.1641 49.6006 19.3433 49.6006 18.3309C49.6006 17.3184 50.4228 16.4976 51.4371 16.4976Z" fill="#214DDE"/>
<path d="M0.933897 28.4157H9.19834C9.70549 28.4157 10.1166 28.0053 10.1166 27.499C10.1147 25.647 10.4089 23.8064 10.9881 22.0469C11.0906 21.7358 11.019 21.3937 10.8004 21.1496C10.5817 20.9054 10.2492 20.7962 9.92803 20.8631C9.60686 20.93 9.34586 21.1629 9.24334 21.474C8.70389 23.127 8.39188 24.8455 8.31588 26.5824H0.933897C0.426749 26.5824 0.015625 26.9928 0.015625 27.499C0.015625 28.0053 0.426749 28.4157 0.933897 28.4157Z" fill="#214DDE"/>
</svg>
