<svg width="36" height="36" viewBox="0 0 36 36" fill="none" xmlns="http://www.w3.org/2000/svg">
<circle cx="18" cy="18" r="17.5" stroke="#214DDE"/>
<path d="M16.8758 27.7142C16.8081 27.7142 16.7411 27.7002 16.6791 27.6731C16.6171 27.6459 16.5614 27.6063 16.5154 27.5565L6.79836 17.0455C6.73358 16.9754 6.69064 16.888 6.67479 16.7939C6.65894 16.6998 6.67086 16.6031 6.7091 16.5156C6.74734 16.4282 6.81024 16.3538 6.8901 16.3016C6.96997 16.2494 7.06332 16.2215 7.15875 16.2215H11.836C11.9062 16.2215 11.9756 16.2366 12.0395 16.2657C12.1034 16.2948 12.1604 16.3373 12.2065 16.3903L15.4539 20.1264C15.8049 19.3762 16.4843 18.127 17.6765 16.6049C19.4391 14.3546 22.7175 11.0451 28.3264 8.05759C28.4348 7.99986 28.561 7.98488 28.6799 8.0156C28.7988 8.04633 28.9019 8.12052 28.9688 8.22354C29.0356 8.32656 29.0615 8.45091 29.0411 8.57204C29.0208 8.69317 28.9558 8.80227 28.8589 8.87781C28.8375 8.89454 26.6749 10.5976 24.186 13.717C21.8954 16.5877 18.8504 21.2816 17.3521 27.3414C17.3257 27.4479 17.2645 27.5425 17.1782 27.6101C17.0918 27.6777 16.9853 27.7144 16.8757 27.7144L16.8758 27.7142Z" fill="#214DDE"/>
</svg>
