<svg width="608" height="233" viewBox="0 0 608 233" fill="none" xmlns="http://www.w3.org/2000/svg"><path d="M420.336 195.11v-50.491L516.021 8.104h67.011v134.021h23.999v52.985h-23.999v37.402H521.32V195.11H420.336zM525.995 76.984l-43.012 65.141h43.012v-65.14z" fill="#2C2A29"/><path d="M211.75 115.321c0-35.74 7.273-63.894 21.817-84.465C248.112 10.286 270.969 0 302.137 0c31.168 0 54.024 10.285 68.569 30.856 14.753 20.57 22.129 48.726 22.129 84.465 0 36.155-7.272 64.517-21.817 85.088-14.545 20.571-37.506 30.856-68.881 30.856-31.376 0-54.336-10.285-68.881-30.856-14.337-20.571-21.506-48.933-21.506-85.088zm120.619 0c0-18.7-1.973-32.934-5.921-42.7-3.948-9.974-12.052-14.96-24.311-14.96-12.26 0-20.363 4.986-24.311 14.96-3.948 9.766-5.922 24-5.922 42.7 0 19.116 1.87 33.661 5.61 43.635 3.948 9.766 12.156 14.649 24.623 14.649s20.57-4.883 24.311-14.649c3.948-9.974 5.921-24.519 5.921-43.635z" fill="#214DDE"/><path d="M0 195.11v-50.491L95.685 8.104h67.011v134.021h23.999v52.985h-23.999v37.402h-61.712V195.11H0zM105.659 76.984l-43.012 65.141h43.012v-65.14z" fill="#2C2A29"/></svg>