<svg width="13" height="18" viewBox="0 0 13 18" fill="none" xmlns="http://www.w3.org/2000/svg"><path d="M6.449 0A6.456 6.456 0 000 6.449c0 4.412 5.77 10.89 6.017 11.164a.58.58 0 00.864 0c.245-.273 6.016-6.752 6.016-11.164A6.456 6.456 0 006.45 0zm0 16.336C4.506 14.029 1.16 9.477 1.16 6.449A5.293 5.293 0 016.45 1.16a5.293 5.293 0 015.287 5.288c0 3.028-3.345 7.58-5.287 9.887z" fill="#000"/><path d="M6.448 3.205A3.248 3.248 0 003.203 6.45a3.248 3.248 0 003.245 3.244A3.248 3.248 0 009.692 6.45a3.248 3.248 0 00-3.244-3.245zm0 5.328A2.086 2.086 0 014.364 6.45c0-1.15.935-2.084 2.084-2.084 1.148 0 2.083.935 2.083 2.084a2.086 2.086 0 01-2.083 2.083z" fill="#000"/></svg>