<svg width="203" height="23" viewBox="0 0 203 23" fill="none" xmlns="http://www.w3.org/2000/svg"><path d="M7.178.452h11.47v4.617H7.086c-.776 0-1.37.17-1.77.508-.399.338-.6.836-.6 1.497 0 .661.201 1.143.6 1.475.4.33.984.499 1.77.499h4.962c2.385 0 4.246.6 5.584 1.79 1.338 1.192 2.009 2.843 2.009 4.957s-.67 3.764-2.009 4.955c-1.338 1.191-3.2 1.792-5.584 1.792H.453v-4.646h11.71c.9 0 1.583-.176 2.046-.53.463-.355.693-.875.693-1.568 0-.693-.23-1.23-.693-1.574-.463-.345-1.146-.524-2.046-.524H7.178c-2.222 0-3.969-.59-5.253-1.782C.64 10.73 0 9.108 0 7.074 0 5.04.639 3.402 1.922 2.217 3.21 1.036 4.952.445 7.178.445v.007z" fill="#000"/><path d="M33.279 3.857l1.948 6.715c.086.269.191.47.322.6a.706.706 0 00.514.192c.208 0 .361-.06.502-.191.137-.131.246-.33.322-.6l1.945-6.716c.354-1.22 1.031-2.174 2.024-2.842C41.856.338 43.063 0 44.493 0c1.817 0 3.232.485 4.231 1.443 1.01.961 1.507 2.306 1.507 4.027v17.067h-4.716V5.952c0-.422-.099-.744-.294-.968-.2-.223-.485-.338-.852-.338-.332 0-.591.083-.786.262-.191.175-.383.6-.584 1.261l-1.584 5.07c-.501 1.613-1.185 2.81-2.053 3.58-.869.776-1.97 1.16-3.299 1.16-1.328 0-2.423-.384-3.292-1.153-.868-.77-1.555-1.967-2.063-3.586l-1.6-5.07c-.2-.662-.392-1.083-.577-1.262-.185-.176-.454-.262-.792-.262-.377 0-.661.115-.869.345-.207.23-.306.552-.306.961v16.585h-4.716V5.47c0-1.721.507-3.066 1.523-4.027C24.386.485 25.8 0 27.618 0c1.437 0 2.66.338 3.652 1.015.994.677 1.661 1.623 2.015 2.842h-.006zm33.886.214l6.114 18.466h-5l-5.54-17.115c-.086-.268-.192-.47-.339-.59a.785.785 0 00-.54-.186.715.715 0 00-.507.176c-.13.12-.24.316-.316.584l-5.54 17.131H50.48l6.087-18.466c.475-1.42 1.13-2.449 1.97-3.103C59.38.323 60.487 0 61.864 0c1.376 0 2.507.338 3.385 1.022.878.677 1.516 1.699 1.906 3.056l.006-.007h.004zM73.52.453h12.216c2.3 0 4.008.4 5.11 1.191 1.101.792 1.647 2.021 1.647 3.679v1.759c0 1.274-.24 2.29-.715 3.056-.476.76-1.207 1.29-2.194 1.59a3.27 3.27 0 011.523 1.22c.409.575.693 1.29.869 2.152l1.584 7.443h-4.963l-1.092-5.984c-.137-.82-.415-1.475-.83-1.967-.424-.492-.907-.737-1.453-.737h-4.745V9.423h5.061c.716 0 1.271-.138 1.66-.416.394-.277.585-.667.585-1.175V6.651c0-.508-.191-.897-.584-1.175-.393-.278-.939-.415-1.66-.415h-7.3v17.466h-4.716V.453h-.004zm20.12 0h18.131V5.07h-6.693v17.467h-4.716V5.07h-6.721V.453z" fill="#000104"/><path d="M125.489 5.1l3.315 11.705c.176.623.361 1.038.552 1.236.192.201.463.3.815.3.383 0 .676-.115.878-.36.201-.24.3-.585.3-1.045V.453h4.716v17.023c0 1.727-.508 3.081-1.523 4.055-1.015.977-2.43 1.46-4.247 1.46-1.648 0-2.931-.384-3.854-1.153-.916-.77-1.638-2.082-2.168-3.947l-3.315-11.722c-.175-.613-.36-1.022-.552-1.223-.192-.201-.463-.3-.814-.3-.393 0-.693.115-.885.345-.201.23-.294.568-.294 1.028V22.54h-4.716V5.47c0-1.721.508-3.066 1.523-4.027C116.236.483 117.65 0 119.467 0c1.648 0 2.931.383 3.854 1.153.917.77 1.638 2.082 2.168 3.946zm29.683 10.6c0 .87-.224 1.53-.671 1.974-.447.447-1.108.667-1.976.667h-6.284c-.869 0-1.53-.223-1.977-.667-.447-.447-.67-1.105-.67-1.973V7.29c0-.869.223-1.53.67-1.973.447-.447 1.108-.668 1.977-.668h6.284c.868 0 1.529.224 1.976.668.447.447.671 1.104.671 1.973v8.41zm2.877-13.864C156.826.616 155.134 0 152.965 0h-7.178c-2.161 0-3.854.613-5.077 1.836-1.223 1.223-1.839 2.912-1.839 5.07v9.143c0 2.165.616 3.863 1.839 5.099 1.223 1.236 2.916 1.852 5.077 1.852h7.178c2.169 0 3.861-.613 5.094-1.852 1.222-1.236 1.839-2.934 1.839-5.1v-9.14c0-2.159-.617-3.842-1.839-5.071h-.01zM159.98.452h5.017l5.54 17.084c.086.277.192.485.322.613.138.13.301.191.502.191a.77.77 0 00.539-.2c.138-.138.253-.34.339-.608L177.779.45h5l-6.115 18.421c-.392 1.377-1.031 2.411-1.915 3.094-.885.684-2.009 1.029-3.379 1.029s-2.478-.323-3.314-.977c-.837-.655-1.501-1.7-1.977-3.142L159.987.459l-.007-.007zm36.218 3.619l6.115 18.466h-5.001l-5.54-17.115c-.086-.268-.192-.47-.338-.59a.788.788 0 00-.54-.186.716.716 0 00-.508.176c-.131.12-.239.316-.316.584l-5.54 17.131h-5.016L185.6 4.071c.476-1.42 1.13-2.449 1.97-3.103.849-.645 1.957-.968 3.334-.968 1.376 0 2.506.338 3.384 1.022.878.677 1.517 1.699 1.906 3.056V4.07h.004z" fill="#1F6FA9"/></svg>