<svg width="56" height="55" viewBox="0 0 56 55" fill="none" xmlns="http://www.w3.org/2000/svg"><path d="M22.972 36.67h9.182a2.752 2.752 0 002.755-2.75v-8.25a2.752 2.752 0 00-2.755-2.75v-1.833a4.587 4.587 0 00-4.591-4.583 4.587 4.587 0 00-4.591 4.583v1.833a2.752 2.752 0 00-2.755 2.75v8.25a2.752 2.752 0 002.755 2.75zm1.836-15.583a2.752 2.752 0 012.755-2.75 2.752 2.752 0 012.755 2.75v1.833h-5.51v-1.833zm-2.755 4.583c0-.506.412-.916.919-.916h9.182c.507 0 .919.41.919.916v8.25a.917.917 0 01-.919.916h-9.182a.918.918 0 01-.919-.916v-8.25z" fill="#214DDE"/><path d="M26.643 31.917v.168a.918.918 0 001.837 0v-.168a2.75 2.75 0 00-.918-5.343 2.75 2.75 0 00-.918 5.342zm.919-3.498a.917.917 0 11.001 1.835.917.917 0 01-.001-1.835z" fill="#214DDE"/><path d="M11.953 27.5c0 8.607 6.99 15.583 15.61 15.583 8.622 0 15.611-6.976 15.611-15.582 0-8.606-6.989-15.583-15.61-15.583-8.618.01-15.601 6.98-15.61 15.583zm15.61-13.749c7.608 0 13.775 6.156 13.775 13.75 0 7.593-6.167 13.75-13.774 13.75-7.608 0-13.774-6.157-13.774-13.75.008-7.59 6.17-13.741 13.774-13.75zm18.365 33.914a3.672 3.672 0 00-3.543 2.75h-6.558v-5.54a19.193 19.193 0 005.51-3.901.915.915 0 00-.422-1.54.92.92 0 00-.89.257 17.412 17.412 0 01-5.452 3.762.9.9 0 00-.325.221c-.01.011-.015.026-.025.039a.904.904 0 00-.161.252.88.88 0 00-.036.177.854.854 0 00-.036.16v6.113c0 1.013.822 1.833 1.837 1.833h6.558a3.667 3.667 0 004.17 2.684 3.661 3.661 0 003.031-3.92 3.664 3.664 0 00-3.658-3.347zm0 5.5a1.835 1.835 0 01-1.837-1.833c0-1.013.822-1.834 1.837-1.834a1.835 1.835 0 110 3.667zM7.23 37.58h4.437c.007 0 .013-.004.022-.004a.882.882 0 00.267-.054.91.91 0 00.125-.052c.01-.005.022-.007.032-.013.01-.007.026-.026.04-.036a.861.861 0 00.381-.512c0-.013.006-.027.009-.04a.87.87 0 00.042-.205.78.78 0 00-.021-.103c0-.012 0-.023-.007-.036a.89.89 0 00-.103-.306l-.005-.014a17.248 17.248 0 01-1.985-5.225.918.918 0 00-1.8.366 19.023 19.023 0 001.47 4.4H7.23a3.673 3.673 0 00-4.02-2.72A3.669 3.669 0 000 36.663 3.669 3.669 0 003.21 40.3a3.672 3.672 0 004.02-2.72zm-3.543.917a1.835 1.835 0 01-1.837-1.833 1.836 1.836 0 013.673 0 1.835 1.835 0 01-1.836 1.833z" fill="#214DDE"/><path d="M.016 18.334a3.662 3.662 0 003.203 3.635A3.666 3.666 0 007.23 19.25h4.462a.941.941 0 00.266-.054.83.83 0 00.117-.048.81.81 0 00.138-.091.864.864 0 00.198-.21c.012-.018.028-.03.039-.049a17.396 17.396 0 014.645-5.231.916.916 0 10-1.102-1.467 19.232 19.232 0 00-4.837 5.317H7.231A3.665 3.665 0 003.22 14.7a3.661 3.661 0 00-3.203 3.634zm5.51 0a1.835 1.835 0 01-1.837 1.834 1.835 1.835 0 01-1.837-1.834 1.835 1.835 0 013.135-1.296c.345.344.538.81.538 1.296zM51.437 33a3.672 3.672 0 00-3.543 2.75H44.99a19.022 19.022 0 001.47-4.4.919.919 0 00-1.8-.367 17.242 17.242 0 01-1.985 5.226v.012a.889.889 0 00-.107.313c0 .01 0 .02-.006.03a.992.992 0 00-.023.103.96.96 0 00.042.212.881.881 0 00.142.31c.01.014.017.028.027.041a.893.893 0 00.22.194c.015.01.025.026.04.035.016.01.022.008.032.014a.94.94 0 00.127.052c.085.03.175.049.265.053.009 0 .015.005.023.005h4.437a3.667 3.667 0 004.17 2.685 3.661 3.661 0 003.032-3.921A3.664 3.664 0 0051.437 33zm0 5.5a1.835 1.835 0 01-1.836-1.833c0-1.012.822-1.833 1.836-1.833 1.014 0 1.837.82 1.837 1.833a1.835 1.835 0 01-1.837 1.834zm-30.303 5.82v-.016a.918.918 0 00-.03-.153.95.95 0 00-.038-.183.901.901 0 00-.158-.248c-.012-.014-.017-.03-.03-.043a.905.905 0 00-.325-.221 17.59 17.59 0 01-6.25-4.633.92.92 0 00-1.581.28.915.915 0 00.186.912 19.427 19.427 0 006.39 4.874v5.529h-6.559a3.673 3.673 0 00-4.019-2.721 3.669 3.669 0 00-3.21 3.637 3.669 3.669 0 003.21 3.637 3.673 3.673 0 004.02-2.72h6.558a1.835 1.835 0 001.836-1.833v-6.099zM9.197 53.166a1.835 1.835 0 01-1.837-1.833c0-1.012.822-1.833 1.837-1.833 1.014 0 1.836.82 1.836 1.833a1.835 1.835 0 01-1.836 1.833zm21.855-8.6a17.755 17.755 0 01-6.98 0A.92.92 0 0023 45.756a.918.918 0 00.707.606c.969.188 1.951.302 2.938.34v7.379a.917.917 0 001.837 0V46.7a19.093 19.093 0 002.938-.34.917.917 0 00-.367-1.795zM19.298 2.75h-6.559A3.673 3.673 0 008.72.03a3.669 3.669 0 00-3.21 3.637 3.669 3.669 0 003.21 3.637 3.673 3.673 0 004.02-2.72h6.558v6.115c0 .037.017.073.022.11.01.094.034.187.072.274a.857.857 0 00.25.315.94.94 0 00.277.157.94.94 0 00.202.04.78.78 0 00.092.02.91.91 0 00.38-.092 17.44 17.44 0 013.48-1.09.917.917 0 10-.368-1.798 19.15 19.15 0 00-2.57.715V4.583a1.835 1.835 0 00-1.837-1.833zM9.197 5.5A1.835 1.835 0 017.36 3.667c0-1.013.822-1.833 1.837-1.833a1.835 1.835 0 011.298 3.13 1.838 1.838 0 01-1.298.536zm33.188-.917a3.673 3.673 0 004.02 2.721 3.669 3.669 0 003.21-3.637 3.669 3.669 0 00-3.21-3.638 3.673 3.673 0 00-4.02 2.721h-6.558c-1.014 0-1.837.82-1.837 1.833v6.113a.85.85 0 00.032.16c.006.06.018.12.036.177.04.092.094.177.16.252.011.012.016.027.027.038.09.097.201.172.325.221a17.413 17.413 0 015.451 3.758.92.92 0 001.57-.375.915.915 0 00-.255-.902 19.193 19.193 0 00-5.51-3.9V4.582h6.56zm3.543-2.75a1.835 1.835 0 110 3.667 1.835 1.835 0 01-1.837-1.833c0-1.013.822-1.833 1.837-1.833zM27.563 0a.918.918 0 00-.918.917v8.25c0 .506.41.916.918.916 1.172 0 2.34.116 3.49.348a.918.918 0 00.367-1.796 19.373 19.373 0 00-2.939-.34V.918A.917.917 0 0027.563 0zm20.331 19.247a3.673 3.673 0 004.02 2.721 3.669 3.669 0 003.21-3.637 3.669 3.669 0 00-3.21-3.637 3.673 3.673 0 00-4.02 2.72h-4.437c-.017 0-.03.01-.047.01a.848.848 0 00-.157.032.881.881 0 00-.218.073c-.007 0-.017 0-.025.009a.219.219 0 01-.04.035.893.893 0 00-.22.194c-.01.013-.017.027-.026.04a.88.88 0 00-.135.275c0 .012 0 .024-.008.036a.896.896 0 00-.042.213c.005.035.012.07.02.104 0 .01.005.02.007.03.015.11.051.216.106.313v.012a17.38 17.38 0 012.337 8.707c0 .506.411.917.919.917h8.264a.917.917 0 100-1.834h-7.377a19.212 19.212 0 00-1.836-7.332h2.915zm3.543-2.75c1.014 0 1.837.821 1.837 1.834a1.835 1.835 0 01-1.837 1.833 1.835 1.835 0 01-1.836-1.833c0-1.013.822-1.833 1.836-1.833zM.934 28.416h8.264c.507 0 .919-.41.919-.917a17.38 17.38 0 01.871-5.452.916.916 0 00-1.06-1.184.918.918 0 00-.685.611 19.166 19.166 0 00-.927 5.108H.934a.917.917 0 100 1.834z" fill="#214DDE"/></svg>