<svg width="16" height="16" viewBox="0 0 16 16" fill="none" xmlns="http://www.w3.org/2000/svg"><path d="M14.873 10.505l-3.68-1.65-.011-.004a1.25 1.25 0 00-1.244.153l-1.901 1.62c-1.205-.584-2.449-1.819-3.034-3.008l1.624-1.93a1.25 1.25 0 00.148-1.237v-.01L5.12.754A1.25 1.25 0 003.822.009 4.395 4.395 0 000 4.375c0 6.203 5.047 11.25 11.25 11.25a4.395 4.395 0 004.366-3.822 1.25 1.25 0 00-.743-1.299zm-3.623 3.87a10.011 10.011 0 01-10-10A3.14 3.14 0 013.974 1.25v.01l1.64 3.671L4 6.864a1.25 1.25 0 00-.123 1.287c.708 1.447 2.167 2.895 3.63 3.602a1.25 1.25 0 001.288-.133l1.9-1.62 3.671 1.644h.009a3.142 3.142 0 01-3.125 2.73z" fill="#214DDE"/></svg>